<svg width="1512" height="11" viewBox="0 0 1512 11" fill="none" xmlns="http://www.w3.org/2000/svg">
<path d="M-5 5.2453C1.87266 2.25157 7.59988 2.25157 12.1816 5.2453C16.7634 8.23904 22.4906 8.23904 29.3633 5.2453C36.236 2.25157 41.9632 2.25157 46.5449 5.2453C51.1267 8.23904 56.8539 8.23904 63.7266 5.2453C70.5993 2.25157 76.3265 2.25157 80.9082 5.2453C85.49 8.23904 91.2172 8.23904 98.0899 5.2453C104.963 2.25157 110.69 2.25157 115.272 5.2453C119.853 8.23904 125.581 8.23904 132.453 5.2453C139.326 2.25157 145.053 2.25157 149.635 5.2453C154.217 8.23904 159.944 8.23904 166.816 5.2453" stroke="#FF4575" stroke-width="5.99997"/>
<path d="M166.816 5.2453C173.689 2.25157 179.416 2.25157 183.998 5.2453C188.58 8.23904 194.307 8.23904 201.18 5.2453C208.052 2.25157 213.78 2.25157 218.361 5.2453C222.943 8.23904 228.67 8.23904 235.543 5.2453C242.416 2.25157 248.143 2.25157 252.725 5.2453C257.306 8.23904 263.034 8.23904 269.906 5.2453C276.779 2.25157 282.506 2.25157 287.088 5.2453C291.67 8.23904 297.397 8.23904 304.27 5.2453C311.142 2.25157 316.869 2.25157 321.451 5.2453C326.033 8.23904 331.76 8.23904 338.633 5.2453" stroke="#FF4575" stroke-width="5.99997"/>
<path d="M338.633 5.2453C345.506 2.25157 351.233 2.25157 355.815 5.2453C360.396 8.23904 366.124 8.23904 372.996 5.2453C379.869 2.25157 385.596 2.25157 390.178 5.2453C394.76 8.23904 400.487 8.23904 407.36 5.2453C414.232 2.25157 419.96 2.25157 424.541 5.2453C429.123 8.23904 434.85 8.23904 441.723 5.2453C448.596 2.25157 454.323 2.25157 458.905 5.2453C463.486 8.23904 469.214 8.23904 476.086 5.2453C482.959 2.25157 488.686 2.25157 493.268 5.2453C497.85 8.23904 503.577 8.23904 510.45 5.2453" stroke="#FF4575" stroke-width="5.99997"/>
<path d="M510.449 5.2453C517.322 2.25157 523.049 2.25157 527.631 5.2453C532.213 8.23904 537.94 8.23904 544.813 5.2453C551.685 2.25157 557.413 2.25157 561.994 5.2453C566.576 8.23904 572.303 8.23904 579.176 5.2453C586.049 2.25157 591.776 2.25157 596.358 5.2453C600.939 8.23904 606.667 8.23904 613.539 5.2453C620.412 2.25157 626.139 2.25157 630.721 5.2453C635.303 8.23904 641.03 8.23904 647.903 5.2453C654.775 2.25157 660.503 2.25157 665.084 5.2453C669.666 8.23904 675.393 8.23904 682.266 5.2453" stroke="#FF4575" stroke-width="5.99997"/>
<path d="M682.266 5.2453C689.139 2.25157 694.866 2.25157 699.448 5.2453C704.029 8.23904 709.757 8.23904 716.629 5.2453C723.502 2.25157 729.229 2.25157 733.811 5.2453C738.393 8.23904 744.12 8.23904 750.993 5.2453C757.865 2.25157 763.592 2.25157 768.174 5.2453C772.756 8.23904 778.483 8.23904 785.356 5.2453C792.229 2.25157 797.956 2.25157 802.538 5.2453C807.119 8.23904 812.847 8.23904 819.719 5.2453C826.592 2.25157 832.319 2.25157 836.901 5.2453C841.483 8.23904 847.21 8.23904 854.082 5.2453" stroke="#FF4575" stroke-width="5.99997"/>
<path d="M854.083 5.2453C860.955 2.25157 866.682 2.25157 871.264 5.2453C875.846 8.23904 881.573 8.23904 888.446 5.2453C895.318 2.25157 901.046 2.25157 905.627 5.2453C910.209 8.23904 915.936 8.23904 922.809 5.2453C929.682 2.25157 935.409 2.25157 939.991 5.2453C944.573 8.23904 950.3 8.23904 957.172 5.2453C964.045 2.25157 969.772 2.25157 974.354 5.2453C978.936 8.23904 984.663 8.23904 991.536 5.2453C998.408 2.25157 1004.14 2.25157 1008.72 5.2453C1013.3 8.23904 1019.03 8.23904 1025.9 5.2453" stroke="#FF4575" stroke-width="5.99997"/>
<path d="M1025.9 5.2453C1032.77 2.25157 1038.5 2.25157 1043.08 5.2453C1047.66 8.23904 1053.39 8.23904 1060.26 5.2453C1067.14 2.25157 1072.86 2.25157 1077.44 5.2453C1082.03 8.23904 1087.75 8.23904 1094.63 5.2453C1101.5 2.25157 1107.23 2.25157 1111.81 5.2453C1116.39 8.23904 1122.12 8.23904 1128.99 5.2453C1135.86 2.25157 1141.59 2.25157 1146.17 5.2453C1150.75 8.23904 1156.48 8.23904 1163.35 5.2453C1170.22 2.25157 1175.95 2.25157 1180.53 5.2453C1185.12 8.23904 1190.84 8.23904 1197.72 5.2453" stroke="#FF4575" stroke-width="5.99997"/>
<path d="M1197.72 5.2453C1204.59 2.25157 1210.32 2.25157 1214.9 5.2453C1219.48 8.23904 1225.21 8.23904 1232.08 5.2453C1238.95 2.25157 1244.68 2.25157 1249.26 5.2453C1253.84 8.23904 1259.57 8.23904 1266.44 5.2453C1273.31 2.25157 1279.04 2.25157 1283.62 5.2453C1288.21 8.23904 1293.93 8.23904 1300.81 5.2453C1307.68 2.25157 1313.41 2.25157 1317.99 5.2453C1322.57 8.23904 1328.3 8.23904 1335.17 5.2453C1342.04 2.25157 1347.77 2.25157 1352.35 5.2453C1356.93 8.23904 1362.66 8.23904 1369.53 5.2453" stroke="#FF4575" stroke-width="5.99997"/>
<path d="M1369.53 5.2453C1376.4 2.25157 1382.13 2.25157 1386.71 5.2453C1391.3 8.23904 1397.02 8.23904 1403.9 5.2453C1410.77 2.25157 1416.5 2.25157 1421.08 5.2453C1425.66 8.23904 1431.39 8.23904 1438.26 5.2453C1445.13 2.25157 1450.86 2.25157 1455.44 5.2453C1460.02 8.23904 1465.75 8.23904 1472.62 5.2453C1479.49 2.25157 1485.22 2.25157 1489.8 5.2453C1494.39 8.23904 1500.11 8.23904 1506.99 5.2453C1513.86 2.25157 1519.59 2.25157 1524.17 5.2453C1528.75 8.23904 1534.48 8.23904 1541.35 5.2453" stroke="#FF4575" stroke-width="5.99997"/>
</svg>