<svg width="50" height="50" viewBox="0 0 50 50" fill="none" xmlns="http://www.w3.org/2000/svg">
<rect width="50" height="50" rx="25" fill="#0025FF"/>
<path d="M32.9091 20.86C32.9091 21.92 32.6591 22.92 32.1591 23.86C31.6591 24.8 30.8591 25.57 29.7591 26.17C28.6591 26.75 27.2491 27.04 25.5291 27.04H21.7491V35.5H18.3291V14.65H25.5291C27.1291 14.65 28.4791 14.93 29.5791 15.49C30.6991 16.03 31.5291 16.77 32.0691 17.71C32.6291 18.65 32.9091 19.7 32.9091 20.86ZM25.5291 24.25C26.8291 24.25 27.7991 23.96 28.4391 23.38C29.0791 22.78 29.3991 21.94 29.3991 20.86C29.3991 18.58 28.1091 17.44 25.5291 17.44H21.7491V24.25H25.5291Z" fill="white"/>
</svg>
